<svg width="14" height="12" viewBox="0 0 14 12" fill="none" xmlns="http://www.w3.org/2000/svg">
<path d="M13.4933 2.82597C13.4933 2.81263 13.5 2.7993 13.5 2.79263C13.5 2.72597 13.4867 2.6593 13.46 2.5993C13.4333 2.5393 13.4 2.48597 13.3533 2.4393L12.02 1.10597C11.8267 0.912635 11.5067 0.912635 11.3133 1.10597C11.12 1.2993 11.12 1.6193 11.3133 1.81263L11.7867 2.28597L9.96667 2.2793C9.96 2.2793 9.96 2.2793 9.95333 2.2793C9.18667 2.2793 8.46667 2.6593 8.04 3.30597L3.78 9.69263C3.54 10.0526 3.13333 10.2726 2.7 10.2726H2.69333L1 10.2593C0.726667 10.2593 0.5 10.4793 0.5 10.7593C0.5 11.0326 0.72 11.2593 1 11.2593L2.7 11.266C2.70667 11.266 2.70667 11.266 2.71333 11.266C3.48667 11.266 4.2 10.886 4.62667 10.2393L8.88667 3.85263C9.12667 3.49263 9.53333 3.27263 9.96667 3.27263H9.97333L13 3.28597C13.0667 3.28597 13.1267 3.27263 13.1933 3.24597C13.2533 3.2193 13.3067 3.18597 13.3533 3.1393C13.3533 3.1393 13.3533 3.13263 13.36 3.13263C13.4 3.08597 13.44 3.0393 13.46 2.9793C13.48 2.93263 13.4867 2.8793 13.4933 2.82597Z" fill="white"/>
</svg>
