<svg width="20" height="14" viewBox="0 0 20 14" fill="none" xmlns="http://www.w3.org/2000/svg">
<path d="M16.4167 0.681667C16.1234 0.599167 15.8209 0.5625 15.5 0.5625H4.50004C4.17921 0.5625 3.87671 0.599167 3.58337 0.681667C2.00671 1.09417 0.833374 2.53333 0.833374 4.22917V9.72917C0.833374 11.7458 2.48337 13.3958 4.50004 13.3958H15.5C17.5167 13.3958 19.1667 11.7458 19.1667 9.72917V4.22917C19.1667 2.53333 17.9934 1.09417 16.4167 0.681667ZM13.6667 5.17333V9.04167C13.6667 10.0867 12.8142 10.9392 11.7692 10.9392C10.7242 10.9392 9.87171 10.0867 9.87171 9.04167C9.87171 7.99667 10.7242 7.14417 11.7692 7.14417C11.9525 7.14417 12.1267 7.18083 12.2917 7.22667V6.07167L9.22087 6.90583V9.84833C9.22087 9.8575 9.22087 9.86667 9.21171 9.87583C9.20254 10.9117 8.35004 11.755 7.31421 11.755C6.26921 11.755 5.41671 10.9025 5.41671 9.84833C5.41671 8.79417 6.26921 7.95083 7.31421 7.95083C7.49754 7.95083 7.67171 7.9875 7.84587 8.03333V6.38333V4.9625C7.84587 4.17417 8.34087 3.5325 9.09254 3.33083L11.5217 2.66167C12.3009 2.45083 12.7959 2.6525 13.0709 2.86333C13.3459 3.07417 13.6667 3.48667 13.6667 4.3025V5.17333Z" fill="#FACD66"/>
</svg>
