<?xml version="1.0" encoding="iso-8859-1"?>
<!-- Generator: Adobe Illustrator 18.0.0, SVG Export Plug-In . SVG Version: 6.00 Build 0)  -->
<!DOCTYPE svg PUBLIC "-//W3C//DTD SVG 1.1//EN" "http://www.w3.org/Graphics/SVG/1.1/DTD/svg11.dtd">
<svg version="1.1" id="Capa_1" xmlns="http://www.w3.org/2000/svg" xmlns:xlink="http://www.w3.org/1999/xlink" x="0px" y="0px"
	 viewBox="0 0 55.237 55.237" style="enable-background:new 0 0 55.237 55.237;" xml:space="preserve">
<path d="M33.213,6.149c-0.86,0-1.764,0.352-2.686,1.046l-10.96,8.257H6.089C2.731,15.452,0,18.184,0,21.541v12.156
	c0,3.357,2.731,6.088,6.089,6.088h13.479l10.96,8.257c0.921,0.694,1.825,1.046,2.686,1.046c0.916,0,1.714-0.413,2.249-1.163
	c0.485-0.682,0.731-1.593,0.731-2.708V10.021C36.193,7.163,34.588,6.149,33.213,6.149z M34.193,45.217
	c0,0.672-0.128,1.222-0.36,1.548c-0.399,0.562-1.185,0.371-2.102-0.32l-11.227-8.458c-0.173-0.13-0.384-0.201-0.602-0.201H6.089
	C3.834,37.785,2,35.951,2,33.697V21.541c0-2.254,1.834-4.089,4.089-4.089h13.813c0.217,0,0.428-0.071,0.602-0.201l11.227-8.458
	c0.551-0.415,1.078-0.644,1.482-0.644c0.909,0,0.98,1.433,0.98,1.872V45.217z M40.548,35.683c-0.552,0-1-0.448-1-1s0.448-1,1-1
	c3.344,0,6.064-2.72,6.064-6.064c0-3.343-2.72-6.063-6.064-6.063c-0.552,0-1-0.448-1-1s0.448-1,1-1c4.446,0,8.064,3.617,8.064,8.063
	S44.995,35.683,40.548,35.683z M55.237,27.619c0,7.341-5.973,13.314-13.314,13.314c-0.552,0-1-0.448-1-1s0.448-1,1-1
	c6.239,0,11.314-5.075,11.314-11.314c0-6.238-5.075-11.313-11.314-11.313c-0.552,0-1-0.448-1-1s0.448-1,1-1
	C49.265,14.305,55.237,20.277,55.237,27.619z"/>
<g>
</g>
<g>
</g>
<g>
</g>
<g>
</g>
<g>
</g>
<g>
</g>
<g>
</g>
<g>
</g>
<g>
</g>
<g>
</g>
<g>
</g>
<g>
</g>
<g>
</g>
<g>
</g>
<g>
</g>
</svg>
